HIERARCHY
ROOT Hips
{
	OFFSET 0.000000 0.000000 0.000000 
	CHANNELS 6 Xposition Yposition Zposition Zrotation Yrotation Xrotation
	JOINT LeftUpLeg
	{
		OFFSET 1.363060 -1.794630 0.839290 
		CHANNELS 3 Zrotation Yrotation Xrotation
		JOINT LeftLeg
		{
			OFFSET 2.448110 -6.726130 0.000000 
			CHANNELS 3 Zrotation Yrotation Xrotation
			JOINT LeftFoot
			{
				OFFSET 2.562200 -7.039590 0.000000 
				CHANNELS 3 Zrotation Yrotation Xrotation
				JOINT LeftToeBase
				{
					OFFSET 0.157640 -0.433110 2.322550 
					CHANNELS 3 Zrotation Yrotation Xrotation
					End Site
					{
						OFFSET 0.000000 0.000000 0.000000 
					}
				}
			}
		}
	}
	JOINT RightUpLeg
	{
		OFFSET -1.305520 -1.794630 0.839290 
		CHANNELS 3 Zrotation Yrotation Xrotation
		JOINT RightLeg
		{
			OFFSET -2.542530 -6.985550 0.000000 
			CHANNELS 3 Zrotation Yrotation Xrotation
			JOINT RightFoot
			{
				OFFSET -2.568260 -7.056230 0.000000 
				CHANNELS 3 Zrotation Yrotation Xrotation
				JOINT RightToeBase
				{
					OFFSET -0.164730 -0.452590 2.363150 
					CHANNELS 3 Zrotation Yrotation Xrotation
					End Site
					{
						OFFSET 0.000000 0.000000 0.000000 
					}
				}
			}
		}
	}
	JOINT Spine
	{
		OFFSET 0.028270 2.035590 -0.193380 
		CHANNELS 3 Zrotation Yrotation Xrotation
		JOINT Spine1
		{
			OFFSET 0.056720 2.048850 -0.042750 
			CHANNELS 3 Zrotation Yrotation Xrotation
			JOINT Neck1
			{
				OFFSET -0.054170 1.746240 0.172020 
				CHANNELS 3 Zrotation Yrotation Xrotation
				JOINT Head
				{
					OFFSET 0.104070 1.761360 -0.123970 
					CHANNELS 3 Zrotation Yrotation Xrotation
					End Site
					{
						OFFSET 0.000000 0.000000 0.000000 
					}
				}
			}
			JOINT LeftArm
			{
				OFFSET 3.362410 1.200890 -0.311210 
				CHANNELS 3 Zrotation Yrotation Xrotation
				JOINT LeftForeArm
				{
					OFFSET 4.983000 -0.000000 -0.000000 
					CHANNELS 3 Zrotation Yrotation Xrotation
					JOINT LeftHand
					{
						OFFSET 3.483560 -0.000000 -0.000000 
						CHANNELS 3 Zrotation Yrotation Xrotation
						JOINT LeftHandIndex1
						{
							OFFSET 0.715260 -0.000000 -0.000000 
							CHANNELS 3 Zrotation Yrotation Xrotation
							End Site
							{
								OFFSET 0.000000 0.000000 0.000000 
							}
						}
					}
				}
			}
			JOINT RightArm
			{
				OFFSET -3.136600 1.374050 -0.404650 
				CHANNELS 3 Zrotation Yrotation Xrotation
				JOINT RightForeArm
				{
					OFFSET -5.241900 -0.000000 -0.000000 
					CHANNELS 3 Zrotation Yrotation Xrotation
					JOINT RightHand
					{
						OFFSET -3.444170 -0.000000 -0.000000 
						CHANNELS 3 Zrotation Yrotation Xrotation
						JOINT RightHandIndex1
						{
							OFFSET -0.622530 -0.000000 -0.000000 
							CHANNELS 3 Zrotation Yrotation Xrotation
							End Site
							{
								OFFSET 0.000000 0.000000 0.000000 
							}
						}
					}
				}
			}
		}
	}
}
MOTION
Frames: 18
Frame Time: 0.041667
10.220010 17.436934 -22.497976 -1.971772 -3.874227 5.648060 -2.057109 -3.341297 -13.413774 0.653019 8.729935 25.901186 -0.494067 4.365310 -6.785520 4.906000 -13.277200 -40.415100 15.537108 3.379290 -16.256809 -2.607339 -11.191083 34.012435 -1.204837 0.716605 -15.208254 -0.466500 4.380700 -12.150200 1.009405 -2.733784 -4.959672 -4.916046 -1.500885 -9.894065 3.108472 11.305894 16.775431 -7.764000 7.979500 8.133000 -74.773720 22.375864 5.435094 14.380292 -20.001847 -3.282912 -0.464195 -2.521028 -18.738731 -7.125000 0.000000 0.000000 72.408312 -14.184961 11.554304 -13.868166 18.827875 -3.633568 -1.301521 -0.425679 15.670443 7.125000 0.000000 0.000000 
10.177072 17.448175 -22.499191 -1.965242 -3.901422 5.812248 -1.918509 -3.358800 -13.456459 0.617629 8.653140 25.658892 -0.526980 4.440814 -6.423038 4.694900 -13.031800 -39.487500 15.694294 3.436706 -16.425811 -2.578311 -11.169250 33.919057 -1.157935 0.545986 -15.104922 -0.534600 4.685200 -13.012900 1.045707 -2.719421 -4.986662 -4.818750 -1.484549 -9.894676 3.085565 11.353883 16.767709 -7.766100 7.994900 8.162500 -75.559648 22.317878 4.839956 14.114700 -19.592068 -3.152814 -0.450790 -2.524431 -18.778967 -7.125000 0.000000 0.000000 72.138144 -14.058602 11.586647 -13.934455 18.901772 -3.667554 -1.298502 -0.439851 15.472667 7.125000 0.000000 0.000000 
10.131806 17.452327 -22.499698 -2.014022 -3.939667 5.794700 -1.726697 -3.171341 -13.397598 0.597915 8.575469 25.438935 -0.519037 4.355858 -6.093515 4.585500 -12.901300 -39.000000 15.937359 3.505913 -16.455189 -2.597964 -11.200807 34.026222 -1.168056 0.570575 -15.166578 -0.558000 4.784900 -13.296000 1.092177 -2.782187 -5.016849 -4.700572 -1.504461 -10.059434 3.043384 11.476078 16.734969 -7.808700 8.058600 8.181500 -76.444007 22.538647 4.337941 13.985790 -19.358522 -3.078330 -0.431809 -2.511321 -19.324214 -7.125000 0.000000 0.000000 71.920627 -13.963942 11.670821 -13.986283 18.911241 -3.660062 -1.280991 -0.426563 15.539505 7.125000 0.000000 0.000000 
10.084008 17.455972 -22.501419 -1.712109 -3.847438 5.848183 -1.850180 -3.079406 -13.438727 0.572185 8.510987 25.263455 -0.412461 3.872693 -5.853373 4.330300 -12.587400 -37.843000 15.774901 3.374480 -16.631907 -2.633042 -11.247010 34.151674 -1.232731 0.845101 -15.229425 -0.500300 4.534400 -12.585200 1.101232 -2.905419 -5.034663 -4.569433 -1.541033 -10.118813 3.020118 11.550745 16.582086 -7.859100 8.079800 8.055700 -77.166921 22.598376 3.987841 13.902337 -19.209192 -3.042517 -0.403697 -2.563021 -20.539863 -7.125000 0.000000 0.000000 71.773209 -13.645425 11.382382 -13.852582 18.719360 -3.603246 -1.288076 -0.438628 15.931825 7.125000 0.000000 0.000000 
10.045425 17.456175 -22.506584 -1.375394 -3.672237 5.859430 -2.015546 -3.236992 -13.418828 0.539849 8.459347 25.115745 -0.379199 3.686000 -5.587614 4.202900 -12.425600 -37.254600 15.538646 3.119210 -16.804027 -2.675367 -11.304810 34.319838 -1.268315 0.919779 -15.417346 -0.501500 4.540000 -12.601000 1.103741 -3.003289 -5.044350 -4.451131 -1.566153 -10.146314 3.074567 11.630083 16.433704 -7.831900 8.091600 7.948200 -77.854625 22.493909 3.513780 13.828734 -19.067286 -3.019888 -0.374350 -2.650911 -21.621587 -7.125000 0.000000 0.000000 71.599772 -13.389355 11.201799 -13.756292 18.595836 -3.576874 -1.312110 -0.446480 15.820250 7.125000 0.000000 0.000000 
10.013222 17.452023 -22.511647 -1.236786 -3.579755 5.752035 -2.008233 -3.376115 -13.308195 0.531087 8.431087 25.043781 -0.353769 3.532584 -5.314343 4.018200 -12.184600 -36.388200 15.523289 2.994646 -16.809122 -2.716804 -11.356929 34.502760 -1.281945 0.888722 -15.615801 -0.528100 4.656900 -12.932500 1.123839 -3.055849 -5.062479 -4.334360 -1.575785 -10.255238 3.237752 11.740755 16.428009 -7.691500 8.131300 8.000400 -78.615785 22.451201 2.944421 13.754601 -18.898799 -2.982577 -0.356325 -2.689426 -22.514047 -7.125000 0.000000 0.000000 71.380327 -13.273705 11.507508 -13.804939 18.617498 -3.579879 -1.313709 -0.428919 15.197852 7.125000 0.000000 0.000000 
9.981221 17.452428 -22.510027 -1.217331 -3.486342 5.788528 -1.896042 -3.374398 -13.411655 0.547204 8.441339 25.067501 -0.302725 3.281414 -5.057516 3.857600 -11.968500 -35.620600 15.640254 2.942095 -16.888646 -2.745220 -11.386197 34.607747 -1.334531 1.128894 -15.639716 -0.577100 4.864500 -13.522400 1.152755 -3.078943 -5.082843 -4.265117 -1.578379 -10.266842 3.302755 11.739144 16.436631 -7.631500 8.120000 8.067000 -79.396218 22.364656 2.375099 13.691915 -18.743207 -2.940391 -0.336890 -2.694899 -23.493872 -7.125000 0.000000 0.000000 71.190659 -13.078344 11.571439 -13.902942 18.694978 -3.603755 -1.296003 -0.431987 15.214298 7.125000 0.000000 0.000000 
9.951145 17.454757 -22.508609 -1.303287 -3.400294 5.960547 -1.691836 -3.340918 -13.679097 0.571977 8.475368 25.140448 -0.253481 3.076009 -5.008965 3.847300 -11.954400 -35.570800 15.866353 2.889346 -17.088377 -2.751004 -11.393613 34.629681 -1.367983 1.306278 -15.610789 -0.572700 4.846500 -13.471200 1.197928 -3.083606 -5.114770 -4.180869 -1.571111 -10.308219 3.307627 11.702137 16.375922 -7.650100 8.095100 8.022600 -80.176844 22.350321 1.594296 13.606366 -18.578826 -2.893641 -0.285032 -2.692957 -23.962442 -7.125000 0.000000 0.000000 70.901520 -13.030601 11.685648 -13.988350 18.788168 -3.632554 -1.289359 -0.424151 15.172281 7.125000 0.000000 0.000000 
9.926436 17.453137 -22.510027 -1.434775 -3.328446 6.023592 -1.471279 -3.354829 -13.835410 0.603471 8.515974 25.248071 -0.193121 2.838796 -5.074273 3.780800 -11.862900 -35.248600 16.140845 2.877960 -17.165522 -2.740983 -11.392731 34.636943 -1.309290 0.984347 -15.705768 -0.525700 4.646600 -12.903300 1.235595 -3.109294 -5.157685 -4.185667 -1.585755 -10.534340 3.381435 11.751589 16.310222 -7.640000 8.129300 7.905300 -80.899744 22.577909 0.949805 13.592286 -18.518989 -2.889784 -0.220698 -2.736687 -24.320328 -7.125000 0.000000 0.000000 70.598421 -13.164093 12.028111 -13.968454 18.782747 -3.633132 -1.297658 -0.423722 14.926253 7.125000 0.000000 0.000000 
9.903448 17.455162 -22.509926 -1.406894 -3.148574 5.975249 -1.432048 -3.444924 -13.904872 0.635947 8.575468 25.421731 -0.138931 2.631670 -5.218172 3.710600 -11.765100 -34.905900 16.238379 2.919290 -17.073800 -2.734838 -11.394961 34.663997 -1.238640 0.526700 -15.959802 -0.572100 4.844100 -13.464400 1.251474 -3.204150 -5.177180 -4.281912 -1.642883 -10.653362 3.339704 11.778906 16.248675 -7.724800 8.157500 7.840500 -81.541341 22.724803 0.759467 13.690169 -18.608951 -2.937811 -0.176017 -2.813316 -25.286568 -7.125000 0.000000 0.000000 70.420860 -13.189005 12.203413 -14.011382 18.844819 -3.653277 -1.300566 -0.415815 15.049620 7.125000 0.000000 0.000000 
9.877118 17.459010 -22.514888 -1.275315 -2.998626 6.026185 -1.490974 -3.481076 -14.111490 0.674160 8.654544 25.644080 0.008400 2.077635 -5.635626 3.600700 -11.609200 -34.363000 16.201554 3.085591 -17.091787 -2.745929 -11.412807 34.719075 -1.256477 0.547448 -16.086718 -0.531300 4.670700 -12.971800 1.261856 -3.260327 -5.177880 -4.302801 -1.668073 -10.586302 3.251763 11.743132 16.147051 -7.839900 8.135500 7.814300 -82.082649 22.556502 0.642961 13.755329 -18.659119 -2.968573 -0.137166 -2.859753 -26.146085 -7.125000 0.000000 0.000000 70.249842 -13.013016 12.202750 -14.109604 18.958556 -3.690090 -1.303349 -0.397620 15.253848 7.125000 0.000000 0.000000 
9.858080 17.460529 -22.518533 -1.112795 -3.009863 6.143781 -1.632624 -3.414317 -14.336650 0.718001 8.746957 25.908676 0.198117 1.410559 -6.368537 3.710600 -11.765000 -34.905800 16.059106 3.094865 -17.285825 -2.775259 -11.448273 34.812316 -1.320035 0.875863 -16.024841 -0.457100 4.337200 -12.027400 1.253229 -3.141827 -5.170475 -4.314324 -1.605066 -10.413947 3.304710 11.634341 16.075998 -7.802600 8.050600 7.871600 -82.450320 22.081764 0.557089 13.694073 -18.523688 -2.939953 -0.116684 -2.877481 -26.453721 -7.125000 0.000000 0.000000 70.050767 -12.654556 12.062882 -14.144416 18.991605 -3.717484 -1.296931 -0.433205 15.170971 7.125000 0.000000 0.000000 
9.844206 17.462656 -22.516913 -1.050741 -3.051585 6.221338 -1.708315 -3.322921 -14.501682 0.770310 8.855163 26.212153 0.317509 1.045583 -7.032852 4.059400 -12.239000 -36.582800 16.038515 3.046995 -17.446907 -2.807432 -11.499253 34.966485 -1.309642 0.802172 -16.077232 -0.433600 4.225400 -11.711700 1.244444 -2.915489 -5.130636 -4.321988 -1.493030 -9.983874 3.363394 11.453352 16.147345 -7.694900 7.917100 8.210100 -82.646631 21.341817 0.934575 13.634783 -18.388668 -2.912664 -0.114071 -2.889973 -26.894097 -7.125000 0.000000 0.000000 69.822995 -11.983051 11.780340 -14.149604 18.956955 -3.717350 -1.271326 -0.478319 14.822553 7.125000 0.000000 0.000000 
9.829624 17.457390 -22.520356 -1.241212 -3.027476 6.237818 -1.515748 -3.286231 -14.667637 0.844359 8.965117 26.528390 0.452900 0.574740 -7.447761 4.136500 -12.339900 -36.945100 16.338132 3.241798 -17.482088 -2.831401 -11.548947 35.140024 -1.243573 0.429889 -16.216685 -0.407700 4.099200 -11.355900 1.254615 -2.785151 -5.139074 -4.410158 -1.438787 -10.040389 3.389376 11.286046 16.085669 -7.737200 7.840000 8.155600 -82.962782 21.358856 1.407573 13.694509 -18.430881 -2.932913 -0.087769 -2.893753 -27.617046 -7.125000 0.000000 0.000000 69.712680 -12.000261 11.659395 -14.208863 19.017284 -3.731479 -1.252654 -0.477606 14.801281 7.125000 0.000000 0.000000 
9.820105 17.444124 -22.526027 -1.259043 -2.927709 6.262674 -1.504140 -3.299882 -14.870072 0.915842 9.070327 26.847058 0.645785 -0.134454 -7.913506 4.008000 -12.171000 -36.339700 16.411389 3.331943 -17.593905 -2.862403 -11.596528 35.298935 -1.224305 0.307224 -16.288903 -0.485000 4.465500 -12.390200 1.316310 -2.994017 -5.208449 -4.235392 -1.517030 -10.532526 3.508696 11.430278 15.799681 -7.721400 7.902000 7.631000 -83.943152 22.054574 1.189955 13.868065 -18.626746 -2.996985 -0.047833 -2.912966 -28.152006 -7.125000 0.000000 0.000000 69.257791 -12.481896 12.344100 -14.250023 19.109644 -3.751166 -1.261220 -0.445469 14.888333 7.125000 0.000000 0.000000 
9.814940 17.439162 -22.528053 -1.218267 -2.740569 6.353434 -1.577254 -3.317669 -15.146034 0.980178 9.172475 27.138780 0.845081 -0.894266 -8.296785 3.888300 -12.010300 -35.768300 16.399342 3.256905 -17.789927 -2.904051 -11.652668 35.479137 -1.238743 0.338463 -16.365667 -0.566500 4.820500 -13.397200 1.355441 -3.099756 -5.239750 -4.152928 -1.554563 -10.664739 3.550778 11.497545 15.616622 -7.720800 7.912800 7.417900 -84.675536 22.403033 1.546454 14.085858 -18.888627 -3.093124 -0.017563 -2.963623 -28.552923 -7.125000 0.000000 0.000000 68.824382 -12.471527 12.797495 -14.225401 19.097351 -3.738586 -1.258311 -0.435393 14.704341 7.125000 0.000000 0.000000 
9.810181 17.439162 -22.527648 -1.343094 -2.682140 6.488320 -1.518780 -3.227378 -15.437371 1.051647 9.272200 27.412292 1.038241 -1.642825 -8.599191 3.724200 -11.784000 -34.972100 16.571450 3.380282 -17.959631 -2.940688 -11.716175 35.674679 -1.231890 0.242639 -16.503739 -0.505800 4.559000 -12.654900 1.341141 -2.847344 -5.221820 -4.338497 -1.450257 -10.498680 3.558262 11.347330 15.496612 -7.741200 7.810600 7.409400 -84.814554 22.285989 2.777081 14.238656 -19.060414 -3.162047 0.004106 -2.988085 -28.979577 -7.125000 0.000000 0.000000 68.671745 -12.190789 12.654307 -14.188934 19.040750 -3.701761 -1.234463 -0.424190 14.358180 7.125000 0.000000 0.000000 
9.805016 17.430858 -22.530280 -1.304884 -2.789811 6.616691 -1.646755 -3.085092 -15.690559 1.113360 9.375055 27.692378 1.202723 -2.250949 -9.001999 3.599600 -11.607700 -34.357800 16.542180 3.622089 -18.156554 -2.981227 -11.790278 35.881070 -1.230065 0.187325 -16.602965 -0.415900 4.139600 -11.469900 1.312216 -2.495720 -5.152508 -4.369532 -1.274998 -9.914602 3.661860 11.190144 15.471040 -7.612200 7.668800 7.705800 -84.712700 21.525783 4.393811 14.332840 -19.159452 -3.212222 0.020982 -3.004001 -29.641416 -7.125000 0.000000 0.000000 68.495552 -11.396145 12.082668 -14.113758 18.909393 -3.640023 -1.245402 -0.367238 14.284674 7.125000 0.000000 0.000000 
